<svg width="91" height="84" viewBox="0 0 91 84" fill="none" xmlns="http://www.w3.org/2000/svg">
<path d="M45.5 60.3749C45.005 60.3749 44.5185 60.2556 44.0888 60.0288L19.1953 46.8956C18.979 46.7803 18.7336 46.7196 18.4839 46.7197C18.2341 46.7198 17.9887 46.7806 17.7725 46.8961C17.5563 47.0115 17.3769 47.1774 17.2522 47.3772C17.1276 47.577 17.0621 47.8036 17.0625 48.0342V60.3749C17.0621 60.8435 17.1975 61.3035 17.4547 61.7074C17.7119 62.1113 18.0816 62.4443 18.5253 62.6718L44.119 75.7968C44.5415 76.0135 45.0167 76.1271 45.5 76.1271C45.9833 76.1271 46.4585 76.0135 46.881 75.7968L72.4747 62.6718C72.9184 62.4443 73.2881 62.1113 73.5453 61.7074C73.8025 61.3035 73.9379 60.8435 73.9375 60.3749V48.0342C73.9379 47.8036 73.8724 47.577 73.7478 47.3772C73.6231 47.1774 73.4437 47.0115 73.2275 46.8961C73.0113 46.7806 72.7659 46.7198 72.5162 46.7197C72.2664 46.7196 72.021 46.7803 71.8047 46.8956L46.9112 60.0288C46.4815 60.2556 45.995 60.3749 45.5 60.3749Z" fill="#5D5D5D"/>
<path d="M88.1421 31.2539C88.1421 31.2539 88.1421 31.2408 88.1421 31.2358C88.0962 30.8197 87.9431 30.4198 87.6958 30.0694C87.4485 29.7189 87.114 29.4281 86.7203 29.2211L46.9078 8.22115C46.478 7.9944 45.9916 7.87512 45.4966 7.87512C45.0015 7.87512 44.5151 7.9944 44.0853 8.22115L4.27284 29.2211C3.83773 29.4508 3.47609 29.7825 3.22457 30.1827C2.97305 30.5829 2.84058 31.0373 2.84058 31.5C2.84058 31.9626 2.97305 32.4171 3.22457 32.8173C3.47609 33.2175 3.83773 33.5492 4.27284 33.7788L44.0853 54.7788C44.5151 55.0056 45.0015 55.1248 45.4966 55.1248C45.9916 55.1248 46.478 55.0056 46.9078 54.7788L81.9357 36.3037C81.9898 36.2749 82.0512 36.2597 82.1137 36.2598C82.1763 36.2598 82.2377 36.2751 82.2917 36.3041C82.3458 36.333 82.3907 36.3746 82.4218 36.4247C82.4529 36.4747 82.4691 36.5315 82.4689 36.5892V60.3011C82.4689 61.7137 83.6455 62.9261 85.1758 62.9967C85.5603 63.0138 85.9445 62.9587 86.3052 62.8346C86.666 62.7106 86.9957 62.5202 87.2744 62.2751C87.5531 62.03 87.7749 61.7352 87.9265 61.4086C88.0781 61.0819 88.1563 60.7303 88.1564 60.375V31.5C88.1561 31.4178 88.1514 31.3356 88.1421 31.2539V31.2539Z" fill="#5D5D5D"/>
</svg>
