<svg width="61" height="74" viewBox="0 0 61 74" fill="none" xmlns="http://www.w3.org/2000/svg">
<path d="M32.0861 1.02976C31.7326 0.386421 31.1374 0 30.5 0C29.8626 0 29.2675 0.386421 28.9139 1.02976L17.4764 21.8423C17.0864 22.5519 17.0501 23.4642 17.3818 24.2162C17.7135 24.9681 18.3595 25.4375 19.0625 25.4375H19.4357L11.7273 40.3994C11.36 41.1123 11.3405 42.0108 11.6765 42.746C12.0124 43.4813 12.6508 43.9375 13.3438 43.9375H14.0719L7.82625 59.0908C7.53079 59.8077 7.56237 60.659 7.9097 61.3408C8.25703 62.0225 8.87059 62.4375 9.53125 62.4375H26.6875L26.6875 74H34.3125V62.4375H51.4688C52.1294 62.4375 52.743 62.0225 53.0903 61.3408C53.4376 60.659 53.4692 59.8077 53.1738 59.0908L46.9281 43.9375H47.6563C48.3492 43.9375 48.9876 43.4813 49.3235 42.746C49.6595 42.0108 49.64 41.1123 49.2727 40.3994L41.5643 25.4375H41.9375C42.6405 25.4375 43.2865 24.9681 43.6182 24.2162C43.9499 23.4642 43.9136 22.5519 43.5236 21.8423L32.0861 1.02976Z" fill="#1B5C4F"/>
</svg>
