<svg width="17" height="14" viewBox="0 0 17 14" fill="none" xmlns="http://www.w3.org/2000/svg">
<path d="M16.8794 1.84304C16.2781 2.10273 15.6374 2.27486 14.9695 2.35844C15.6566 1.95448 16.1811 1.31968 16.4277 0.554543C15.787 0.930645 15.0796 1.1963 14.3258 1.34456C13.7174 0.706775 12.8504 0.311768 11.9045 0.311768C10.0694 0.311768 8.59203 1.77837 8.59203 3.5763C8.59203 3.83499 8.61426 4.08374 8.66883 4.32054C5.91313 4.18821 3.47473 2.88777 1.83666 0.906766C1.55068 1.3953 1.38294 1.95448 1.38294 2.55644C1.38294 3.68674 1.9741 4.68868 2.85527 5.26876C2.32273 5.25881 1.80029 5.10658 1.35767 4.86679C1.35767 4.87674 1.35767 4.88967 1.35767 4.9026C1.35767 6.4886 2.50664 7.80596 4.01334 8.10943C3.74353 8.18206 3.44946 8.21688 3.14429 8.21688C2.93207 8.21688 2.71784 8.20494 2.51675 8.16116C2.94622 9.45364 4.16492 10.4038 5.61401 10.4347C4.48626 11.3033 3.05435 11.8267 1.5042 11.8267C1.23237 11.8267 0.971653 11.8147 0.710938 11.7819C2.17923 12.7142 3.91936 13.2465 5.79591 13.2465C11.8954 13.2465 15.2302 8.27161 15.2302 3.95936C15.2302 3.81509 15.2251 3.67579 15.2181 3.53749C15.8759 3.07781 16.4287 2.50371 16.8794 1.84304Z" fill="white"/>
</svg>
